Coordinates
version=1
nRows=24
nColumns=38
inDegrees=no

Units are S.I. units (second, meters, Newtons, ...)
If the header above contains a line with 'inDegrees', this indicates whether rotational values are in degrees (yes) or radians (no).

endheader
time	pelvis_tilt	pelvis_list	pelvis_rotation	pelvis_tx	pelvis_ty	pelvis_tz	hip_flexion_r	hip_adduction_r	hip_rotation_r	knee_angle_r	ankle_angle_r	subtalar_angle_r	mtp_angle_r	hip_flexion_l	hip_adduction_l	hip_rotation_l	knee_angle_l	ankle_angle_l	subtalar_angle_l	mtp_angle_l	lumbar_extension	lumbar_bending	lumbar_rotation	arm_flex_r	arm_add_r	arm_rot_r	elbow_flex_r	pro_sup_r	wrist_flex_r	wrist_dev_r	arm_flex_l	arm_add_l	arm_rot_l	elbow_flex_l	pro_sup_l	wrist_flex_l	wrist_dev_l
1.96	-1.24328	1.36306	2.77346	0.503737	1.73744	1.0227	0.600711	-0.280475	0.243931	1.41078	-0.276188	0	0	0.190125	0.146172	-0.357143	0.412515	-0.202916	0	0	-0.0811248	-0.217667	0.226788	-0.0128696	-0.535374	0.846696	0.82306	0.661036	0	0	0.053689	-0.46485	0.859189	0.727061	0.515204	0	0
1.97	-1.24398	1.36505	2.77407	0.503513	1.74564	1.02363	0.613263	-0.276269	0.244861	1.38976	-0.266504	0	0	0.176289	0.14541	-0.360222	0.406141	-0.202723	0	0	-0.0838542	-0.216006	0.227633	-0.0113874	-0.53759	0.844832	0.826496	0.662062	0	0	0.0571687	-0.465407	0.862019	0.72888	0.512094	0	0
1.98	-1.24661	1.36623	2.7752	0.503507	1.75358	1.02435	0.625775	-0.272549	0.247324	1.36746	-0.254213	0	0	0.162685	0.145613	-0.363045	0.399588	-0.201668	0	0	-0.0872687	-0.215443	0.230176	-0.0098999	-0.540736	0.842717	0.83134	0.663481	0	0	0.0612043	-0.465909	0.864508	0.730937	0.5097	0	0
1.99	-1.25166	1.36705	2.77819	0.50364	1.76137	1.02491	0.637522	-0.269496	0.249974	1.34417	-0.240525	0	0	0.149149	0.146141	-0.366184	0.393575	-0.200061	0	0	-0.0911875	-0.215424	0.233227	-0.00859638	-0.543995	0.839727	0.836708	0.664478	0	0	0.0656161	-0.466587	0.867504	0.733077	0.507695	0	0
2	-1.24705	1.36733	2.77402	0.503614	1.76929	1.02515	0.649627	-0.268268	0.249694	1.31999	-0.227495	0	0	0.138625	0.146467	-0.366888	0.389415	-0.198144	0	0	-0.0925835	-0.215128	0.234035	-0.0073921	-0.546076	0.838184	0.840757	0.666529	0	0	0.0691503	-0.467638	0.870598	0.734641	0.505953	0	0
2.01	-1.24081	1.36709	2.76833	0.503688	1.7771	1.02517	0.661892	-0.267447	0.250074	1.29563	-0.213096	0	0	0.129387	0.147014	-0.366801	0.386238	-0.195839	0	0	-0.0934534	-0.21535	0.235232	-0.00685769	-0.548407	0.835967	0.84548	0.667264	0	0	0.0732202	-0.469033	0.87459	0.736473	0.503284	0	0
2.02	-1.23239	1.36627	2.76017	0.503898	1.78478	1.02496	0.674375	-0.266943	0.250888	1.2706	-0.199892	0	0	0.121499	0.147677	-0.366483	0.383889	-0.193198	0	0	-0.0935664	-0.216271	0.237134	-0.0084415	-0.551162	0.830144	0.851312	0.659642	0	0	0.0773742	-0.471042	0.878616	0.739441	0.50058	0	0
2.03	-1.22127	1.3648	2.74893	0.504249	1.79231	1.0245	0.687015	-0.266978	0.251435	1.24439	-0.187317	0	0	0.114922	0.148492	-0.365915	0.381882	-0.189924	0	0	-0.0930235	-0.217689	0.239943	-0.0115032	-0.554198	0.821733	0.858541	0.645956	0	0	0.081934	-0.473347	0.883195	0.742927	0.49831	0	0
2.04	-1.21289	1.36285	2.73921	0.504806	1.79956	1.02379	0.698943	-0.267241	0.251824	1.21747	-0.17337	0	0	0.108755	0.149553	-0.366917	0.381063	-0.185216	0	0	-0.0912458	-0.21789	0.241523	0.00139233	-0.554377	0.842223	0.859522	0.694538	0	0	0.0853548	-0.475353	0.889276	0.745304	0.492109	0	0
2.05	-1.17724	1.35185	2.70166	0.505806	1.80675	1.02086	0.651188	-0.323099	0.213217	1.0068	-0.167919	0	0	0.114975	0.155556	-0.369521	0.386029	-0.176364	0	0	-0.082897	-0.231344	0.259833	-0.0666236	-0.568826	0.713621	0.923285	0.605519	0	0	0.0986779	-0.485072	0.904267	0.760672	0.495468	0	0
2.06	-1.16998	1.35227	2.70035	0.506538	1.81415	1.0203	0.66552	-0.328989	0.200758	0.984421	-0.170043	0	0	0.109194	0.153037	-0.362319	0.390233	-0.171071	0	0	-0.0851356	-0.231219	0.260922	-0.0739249	-0.567864	0.697236	0.930154	0.596125	0	0	0.110203	-0.489609	0.922096	0.764581	0.484897	0	0
2.07	-1.22641	1.36505	2.75658	0.507747	1.82135	1.02147	0.717616	-0.309834	0.140468	1.1194	-0.150978	0	0	0.0832057	0.141451	-0.370717	0.394555	-0.163975	0	0	-0.109657	-0.204292	0.237514	0.0931327	-0.484103	0.930498	0.811837	1.16757	0	0	0.102301	-0.478646	0.913962	0.751245	0.459623	0	0
2.08	-1.25111	1.36912	2.78097	0.508594	1.8304	1.0216	0.723659	-0.321098	0.106047	1.10572	-0.148492	0	0	0.0631043	0.137446	-0.379502	0.390558	-0.162122	0	0	-0.118735	-0.200924	0.240658	0.0927582	-0.479444	0.921951	0.811942	1.20166	0	0	0.103029	-0.478303	0.91125	0.754742	0.464076	0	0
2.09	-1.15134	1.34549	2.66565	0.508849	1.83453	1.01725	0.753228	-0.280553	0.226902	1.04721	-0.126741	0	0	0.0935533	0.157344	-0.374862	0.389782	-0.157478	0	0	-0.091597	-0.214888	0.258111	0.088751	-0.481568	0.90909	0.813947	1.22781	0	0	0.103082	-0.474277	0.902753	0.754438	0.470783	0	0
2.1	-1.16307	1.34217	2.68281	0.50983	1.84372	1.01538	0.702788	-0.319204	0.235943	0.857966	-0.135599	0	0	0.0821353	0.158463	-0.379487	0.394486	-0.148031	0	0	-0.0883125	-0.218954	0.255399	0.0859514	-0.481888	0.915673	0.817746	1.22647	0	0	0.101728	-0.484695	0.910664	0.766799	0.4644	0	0
2.11	-1.1185	1.33912	2.63252	0.510694	1.84979	1.01487	0.777694	-0.277533	0.232802	1.00514	-0.100581	0	0	0.0882731	0.158003	-0.374052	0.393113	-0.148007	0	0	-0.0791964	-0.215392	0.259961	0.0955322	-0.486046	0.934251	0.812966	1.20339	0	0	0.103449	-0.477605	0.91139	0.756395	0.458667	0	0
2.12	-1.06932	1.33287	2.58556	0.51173	1.8582	1.01409	0.79408	-0.277146	0.228937	0.980234	-0.0881778	0	0	0.0932269	0.158015	-0.365974	0.39013	-0.149452	0	0	-0.0657357	-0.235036	0.289789	-0.0992303	-0.579456	0.63751	0.971407	0.609742	0	0	0.122576	-0.48618	0.927409	0.769021	0.480382	0	0
2.13	-1.13986	1.35217	2.66776	0.513596	1.86924	1.01623	0.788329	-0.308979	0.125093	1.00867	-0.079128	0	0	0.0520621	0.141053	-0.373694	0.390805	-0.148079	0	0	-0.0918997	-0.225138	0.277866	-0.102068	-0.582294	0.633678	0.981292	0.611269	0	0	0.121775	-0.492125	0.9276	0.77722	0.479709	0	0
2.14	-1.11645	1.33591	2.64025	0.514963	1.87648	1.01211	0.734685	-0.325274	0.217429	0.757347	-0.107298	0	0	0.0606934	0.152053	-0.378939	0.398531	-0.139213	0	0	-0.0785292	-0.237181	0.292216	-0.124291	-0.584919	0.605964	1.00373	0.645529	0	0	0.129951	-0.499599	0.945382	0.78828	0.46926	0	0
2.15	-1.04173	1.32242	2.55349	0.516068	1.88116	1.01027	0.825223	-0.27634	0.232141	0.938321	-0.042864	0	0	0.0843285	0.158422	-0.369959	0.399118	-0.138796	0	0	-0.0572701	-0.237821	0.300349	-0.116547	-0.587785	0.608503	1.00179	0.634412	0	0	0.124386	-0.489222	0.929931	0.775925	0.473368	0	0
2.16	-1.04061	1.32224	2.55333	0.517719	1.88958	1.00947	0.83284	-0.280466	0.215199	0.935717	-0.0275159	0	0	0.0766214	0.155629	-0.371318	0.402611	-0.136167	0	0	-0.0561675	-0.236767	0.276167	-0.0817219	-0.595682	0.662051	1.00027	0.626333	0	0	0.0867306	-0.492882	0.862634	0.789316	0.507879	0	0
2.17	-1.05482	1.32331	2.56706	0.519578	1.89797	1.00882	0.839402	-0.283742	0.203781	0.942278	-0.00970357	0	0	0.0646142	0.153383	-0.376108	0.406201	-0.133258	0	0	-0.0646027	-0.236786	0.299069	-0.12457	-0.596087	0.59514	1.02596	0.651256	0	0	0.116465	-0.492203	0.912238	0.786124	0.48205	0	0
2.18	-1.05491	1.32195	2.56688	0.521423	1.90618	1.00786	0.845327	-0.285201	0.197464	0.940462	-0.00164835	0	0	0.0576207	0.152554	-0.374939	0.408275	-0.133061	0	0	-0.0610777	-0.236011	0.286945	-0.104919	-0.601878	0.624387	1.02528	0.617637	0	0	0.0967011	-0.495384	0.883012	0.793068	0.492671	0	0
2.19	-1.09114	1.32172	2.61388	0.523715	1.91601	1.00577	0.767622	-0.327405	0.216648	0.685562	-0.0560023	0	0	0.0411138	0.14974	-0.376662	0.421019	-0.123488	0	0	-0.0708881	-0.241236	0.290921	-0.13648	-0.601419	0.580804	1.0509	0.619772	0	0	0.111334	-0.509879	0.91395	0.810737	0.477973	0	0
